<?xml version="1.0" encoding="UTF-8" standalone="no"?>
<!-- Created with Inkscape (http://www.inkscape.org/) -->

<svg
   xmlns:dc="http://purl.org/dc/elements/1.1/"
   xmlns:cc="http://creativecommons.org/ns#"
   xmlns:rdf="http://www.w3.org/1999/02/22-rdf-syntax-ns#"
   xmlns:svg="http://www.w3.org/2000/svg"
   xmlns="http://www.w3.org/2000/svg"
   xmlns:sodipodi="http://sodipodi.sourceforge.net/DTD/sodipodi-0.dtd"
   xmlns:inkscape="http://www.inkscape.org/namespaces/inkscape"
   id="svg2"
   version="1.1"
   inkscape:version="0.91 r13725"
   xml:space="preserve"
   width="292.625"
   height="153.89999"
   viewBox="0 0 292.625 153.89999"
   sodipodi:docname="WIDE - Black on White.svg"><metadata
     id="metadata8"><rdf:RDF><cc:Work
         rdf:about=""><dc:format>image/svg+xml</dc:format><dc:type
           rdf:resource="http://purl.org/dc/dcmitype/StillImage" /><dc:title></dc:title></cc:Work></rdf:RDF></metadata><defs
     id="defs6" /><sodipodi:namedview
     pagecolor="#ffffff"
     bordercolor="#666666"
     borderopacity="1"
     objecttolerance="10"
     gridtolerance="10"
     guidetolerance="10"
     inkscape:pageopacity="0"
     inkscape:pageshadow="2"
     inkscape:window-width="1586"
     inkscape:window-height="767"
     id="namedview4"
     showgrid="false"
     inkscape:zoom="1.5334633"
     inkscape:cx="-12.478384"
     inkscape:cy="76.949997"
     inkscape:window-x="0"
     inkscape:window-y="0"
     inkscape:window-maximized="0"
     inkscape:current-layer="g10" /><g
     id="g10"
     inkscape:groupmode="layer"
     inkscape:label="ink_ext_XXXXXX"
     transform="matrix(1.25,0,0,-1.25,0,153.9)"><g
       id="g12"
       transform="scale(0.1,0.1)"><path
         d="M 0,1231.17 0,0 l 2340.95,0 0,1231.17 -2340.95,0"
         style="fill:#ffffff;fill-opacity:1;fill-rule:nonzero;stroke:none"
         id="path14"
         inkscape:connector-curvature="0" /><path
         d="m 348.473,998.316 0,0 c -10.297,10.344 -24.594,16.714 -40.52,16.714 -15.89,0 -30.07,-6.37 -40.238,-16.714 l -0.266,0 c -10.265,-10.265 -16.636,-24.593 -16.636,-40.425 0,-15.926 6.371,-30.164 16.636,-40.328 l 0.266,-0.282 c 10.168,-10.254 24.348,-16.535 40.238,-16.535 15.926,0 30.223,6.281 40.52,16.535 l 0.117,0.282 c 10.312,10.164 16.598,24.402 16.598,40.328 0,15.832 -6.286,30.16 -16.598,40.425 l -0.117,0 z m -40.52,-782.195 0,0 c 15.926,0 30.223,6.488 40.52,16.641 l 0.117,0.293 c 10.312,10.136 16.598,24.465 16.598,40.211 0,15.922 -6.286,30.187 -16.598,40.504 l -0.117,0 c -10.297,10.441 -24.594,16.753 -40.52,16.753 -15.89,0 -30.07,-6.312 -40.238,-16.753 l -0.266,0 c -10.265,-10.317 -16.636,-24.582 -16.636,-40.504 0,-15.746 6.371,-30.075 16.636,-40.211 l 0.266,-0.293 c 10.168,-10.153 24.348,-16.641 40.238,-16.641 l 0,0 z m 311.324,173.129 0,0 c 14.153,3.723 26.969,12.805 34.789,26.543 l 1.055,2.008 0,0 c 6.957,13.008 8.234,28.051 4.512,41.394 -3.75,14.254 -12.934,26.899 -26.645,34.762 l -0.804,0.543 c -13.36,7.34 -28.567,8.938 -42.539,5.129 -14.211,-3.547 -26.985,-13.012 -34.762,-26.633 -7.879,-13.535 -9.524,-29.094 -5.758,-43.418 3.898,-14.094 13.008,-26.82 26.633,-34.773 l 0.086,0 c 13.652,-7.856 29.094,-9.258 43.433,-5.555 l 0,0 z m -252.714,284.883 0,0 c -15,14.957 -35.7,24.332 -58.61,24.332 -22.879,0 -43.519,-9.375 -58.488,-24.332 -14.93,-14.942 -24.129,-35.551 -24.129,-58.461 0,-22.91 9.199,-43.609 24.129,-58.727 14.969,-14.867 35.609,-24.156 58.488,-24.156 22.91,0 43.61,9.289 58.61,24.156 14.957,15.118 24.156,35.817 24.156,58.727 0,22.91 -9.199,43.519 -24.156,58.461 l 0,0 z m -32.958,97.383 0,0 c 33.25,-5.477 63.118,-21.403 85.942,-44.399 l 0.176,0 c 3.632,-3.617 7.164,-7.601 10.445,-11.586 l 57.055,33 c -7.676,23.176 -8.028,47.407 -1.864,70.141 8.133,30.422 27.864,57.668 57.438,74.734 l 0.969,0.617 c 29.254,16.551 62.504,19.993 92.519,11.864 30.395,-8.145 57.817,-27.965 74.883,-57.496 l 0,-0.086 c 16.992,-29.371 20.434,-63.078 12.332,-93.414 -8.086,-30.426 -27.891,-57.848 -57.437,-74.825 l -7.793,-4.597 -0.79,0 c -27.335,-13.012 -57.378,-15.047 -84.976,-7.781 -22.66,6.007 -43.445,18.664 -59.723,36.609 l -56.965,-32.902 c 6.547,-17.329 10.164,-35.993 10.164,-55.723 0,-19.629 -3.617,-38.57 -10.164,-55.984 l 56.965,-32.817 c 16.278,18.227 37.063,30.602 59.723,36.621 30.41,8.309 64.101,4.778 93.559,-12.39 l 1.89,-0.879 0,-0.086 c 28.449,-17.258 47.551,-43.875 55.547,-73.946 8.102,-30.164 4.66,-63.882 -12.332,-93.312 l -1.027,-2.051 0,0 -0.118,0.176 c -17.062,-28.375 -43.96,-47.594 -73.652,-55.723 -30.453,-8.027 -64.16,-4.597 -93.574,12.321 l 0,0.234 c -29.574,17.094 -49.305,44.398 -57.438,74.766 -6.164,22.628 -5.812,46.859 1.864,70.035 l -57.055,32.914 c -3.281,-3.985 -6.813,-7.793 -10.445,-11.41 l -0.176,-0.176 c -22.824,-22.91 -52.692,-38.836 -85.942,-44.137 l 0,-65.918 c 23.7,-4.953 44.911,-16.805 61.536,-33.43 l 0,0 0.089,-0.175 c 22.282,-22.176 36.079,-53.071 36.079,-87.039 0,-33.856 -13.797,-64.575 -36.079,-86.868 l -0.089,-0.347 0,0 c -22.442,-22.281 -53.215,-36.082 -87.188,-36.082 -33.793,0 -64.656,13.801 -87.039,36.082 l -0.09,0 0,0.347 c -22.308,22.293 -36.136,53.012 -36.136,86.868 0,33.968 13.828,64.863 36.136,87.039 l 0,0.175 0.09,0 c 16.609,16.625 37.863,28.477 61.481,33.43 l 0,65.918 c -33.254,5.301 -63.063,21.227 -85.856,44.137 l -0.234,0.176 c -28.461,28.562 -46.289,67.922 -46.289,111.531 0,43.519 17.828,82.883 46.289,111.445 l 0.234,0 c 22.793,22.996 52.602,38.922 85.856,44.399 l 0,65.64 c -23.618,5.125 -44.872,16.977 -61.481,33.516 l -0.09,0 0,0.176 c -22.308,22.382 -36.136,53.07 -36.136,87.043 0,33.793 13.828,64.749 36.136,87.039 l 0,0 0.09,0.09 c 22.383,22.37 53.246,36.16 87.039,36.16 33.973,0 64.746,-13.79 87.188,-36.16 l 0,-0.09 0.089,0 c 22.282,-22.29 36.079,-53.246 36.079,-87.039 0,-33.973 -13.797,-64.661 -36.079,-87.043 l -0.089,-0.176 c -16.625,-16.539 -37.836,-28.391 -61.536,-33.516 l 0,-65.64 0,0 z m 320.461,43.785 -0.48,0.719 c -7.867,13.253 -20.422,22.101 -34.309,25.914 -14.339,3.804 -29.781,2.211 -43.519,-5.672 l 0.086,0 c -13.711,-7.778 -22.879,-20.508 -26.719,-34.758 -3.766,-14.152 -2.121,-29.797 5.758,-43.422 l 0.262,-0.352 c 7.898,-13.445 20.464,-22.468 34.5,-26.101 14.089,-3.984 29.808,-2.301 43.343,5.582 l 0.735,0.352 c 13.328,7.953 22.207,20.519 25.91,34.32 3.781,14.238 2.269,29.797 -5.567,43.418 l 0,0"
         style="fill:#231f20;fill-opacity:1;fill-rule:nonzero;stroke:none"
         id="path16"
         inkscape:connector-curvature="0" /><path
         d="m 907.207,796.023 63.66,0 0,-194.328 91.803,101.543 76.33,0 -110.83,-117.64 111.29,-149.121 -72.89,0 -95.703,133.199 0,-133.199 -63.66,0 0,359.546"
         style="fill:#231f20;fill-opacity:1;fill-rule:nonzero;stroke:none"
         id="path18"
         inkscape:connector-curvature="0" /><path
         d="m 1212.95,568.707 c 0,-33.09 23.8,-81.195 81.14,-81.195 35.48,0 58.83,18.488 70.94,42.715 6.34,11.761 9.26,24.332 10.24,37.414 0.44,12.656 -1.95,25.824 -7.33,37.511 -11.16,25.2 -35.93,47.051 -74.32,47.051 -51.48,0 -80.67,-41.746 -80.67,-83.055 l 0,-0.441 z m 225.47,-132.23 -63.69,0 0,38.378 c -16.95,-31.039 -52.44,-46.609 -89.87,-46.609 -85.53,0 -135.56,66.606 -135.56,141.867 0,84.039 60.73,141.36 135.56,141.36 48.59,0 78.22,-25.75 89.87,-47.153 l 0,38.918 63.69,0 0,-266.761"
         style="fill:#231f20;fill-opacity:1;fill-rule:nonzero;stroke:none"
         id="path20"
         inkscape:connector-curvature="0" /><path
         d="m 1510.5,654.152 -32.99,0 0,49.086 32.99,0 0,15.032 c 0,79.261 60.27,84.039 105.97,84.566 l 0,-49 c -16.07,0 -42.28,0 -42.28,-37.5 l 0,-13.098 42.28,0 0,-49.086 -42.28,0 0,-217.675 -63.69,0 0,217.675"
         style="fill:#231f20;fill-opacity:1;fill-rule:nonzero;stroke:none"
         id="path22"
         inkscape:connector-curvature="0" /><path
         d="m 1659.76,796.023 63.64,0 0,-194.328 91.82,101.543 76.33,0 -110.83,-117.64 111.27,-149.121 -72.89,0 -95.7,133.199 0,-133.199 -63.64,0 0,359.546"
         style="fill:#231f20;fill-opacity:1;fill-rule:nonzero;stroke:none"
         id="path24"
         inkscape:connector-curvature="0" /><path
         d="m 1965.5,568.707 c 0,-33.09 23.79,-81.195 81.14,-81.195 35.43,0 58.78,18.488 70.91,42.715 6.36,11.761 9.29,24.332 10.25,37.414 0.44,12.656 -1.95,25.824 -7.34,37.511 -11.14,25.2 -35.91,47.051 -74.29,47.051 -51.49,0 -80.67,-41.746 -80.67,-83.055 l 0,-0.441 z m 225.45,-132.23 -63.67,0 0,38.378 c -17,-31.039 -52.46,-46.609 -89.87,-46.609 -85.53,0 -135.52,66.606 -135.52,141.867 0,84.039 60.71,141.36 135.52,141.36 48.56,0 78.22,-25.75 89.87,-47.153 l 0,38.918 63.67,0 0,-266.761"
         style="fill:#231f20;fill-opacity:1;fill-rule:nonzero;stroke:none"
         id="path26"
         inkscape:connector-curvature="0" /></g></g></svg>