<?xml version="1.0" encoding="UTF-8" standalone="no"?>
<!-- Created with Inkscape (http://www.inkscape.org/) -->

<svg
   xmlns:dc="http://purl.org/dc/elements/1.1/"
   xmlns:cc="http://creativecommons.org/ns#"
   xmlns:rdf="http://www.w3.org/1999/02/22-rdf-syntax-ns#"
   xmlns:svg="http://www.w3.org/2000/svg"
   xmlns="http://www.w3.org/2000/svg"
   xmlns:sodipodi="http://sodipodi.sourceforge.net/DTD/sodipodi-0.dtd"
   xmlns:inkscape="http://www.inkscape.org/namespaces/inkscape"
   width="170mm"
   height="51.209801mm"
   viewBox="0 0 602.3622 181.45205"
   id="svg3411"
   version="1.1"
   inkscape:version="0.91 r13725"
   sodipodi:docname="c7akka.svg">
  <defs
     id="defs3413">
    <clipPath
       id="clipPath4429">
      <g
         transform="matrix(0.9947658,0,0,1,1.7860989,0)"
         id="g4431">
        <path
           inkscape:connector-curvature="0"
           d="m 322.54143,2800.9375 -4.43505,5.7298 -4.43495,-5.7298 0,-43.1429 -18.93972,0 23.37467,-25.5367 23.13125,25.5367 -18.6962,0 0,43.1429 z"
           id="path4433"
           style="display:inline;overflow:visible;visibility:visible;fill:#efa724;fill-opacity:1;fill-rule:evenodd;stroke:none;stroke-width:30;marker:none" />
      </g>
    </clipPath>
    <clipPath
       id="clipPath3430">
      <g
         transform="matrix(0.9947658,0,0,1,1.7860989,0)"
         id="g3432">
        <path
           inkscape:connector-curvature="0"
           d="m 322.54143,2800.9375 -4.43505,5.7298 -4.43495,-5.7298 0,-43.1429 -18.93972,0 23.37467,-25.5367 23.13125,25.5367 -18.6962,0 0,43.1429 z"
           id="path3434"
           style="display:inline;overflow:visible;visibility:visible;fill:#efa724;fill-opacity:1;fill-rule:evenodd;stroke:none;stroke-width:30;marker:none" />
      </g>
    </clipPath>
    <clipPath
       id="clipPath3436">
      <g
         transform="matrix(0.9947658,0,0,1,1.7860989,0)"
         id="g3438">
        <path
           inkscape:connector-curvature="0"
           d="m 322.54143,2800.9375 -4.43505,5.7298 -4.43495,-5.7298 0,-43.1429 -18.93972,0 23.37467,-25.5367 23.13125,25.5367 -18.6962,0 0,43.1429 z"
           id="path3440"
           style="display:inline;overflow:visible;visibility:visible;fill:#efa724;fill-opacity:1;fill-rule:evenodd;stroke:none;stroke-width:30;marker:none" />
      </g>
    </clipPath>
    <clipPath
       id="clipPath3442">
      <g
         transform="matrix(0.9947658,0,0,1,1.7860989,0)"
         id="g3444">
        <path
           inkscape:connector-curvature="0"
           d="m 322.54143,2800.9375 -4.43505,5.7298 -4.43495,-5.7298 0,-43.1429 -18.93972,0 23.37467,-25.5367 23.13125,25.5367 -18.6962,0 0,43.1429 z"
           id="path3446"
           style="display:inline;overflow:visible;visibility:visible;fill:#efa724;fill-opacity:1;fill-rule:evenodd;stroke:none;stroke-width:30;marker:none" />
      </g>
    </clipPath>
  </defs>
  <sodipodi:namedview
     id="base"
     pagecolor="#ffffff"
     bordercolor="#666666"
     borderopacity="1.0"
     inkscape:pageopacity="0.0"
     inkscape:pageshadow="2"
     inkscape:zoom="0.35"
     inkscape:cx="-327.00001"
     inkscape:cy="-340.97652"
     inkscape:document-units="px"
     inkscape:current-layer="layer1"
     showgrid="false"
     fit-margin-top="0"
     fit-margin-left="0"
     fit-margin-right="0"
     fit-margin-bottom="0"
     inkscape:window-width="1879"
     inkscape:window-height="835"
     inkscape:window-x="470"
     inkscape:window-y="474"
     inkscape:window-maximized="0" />
  <metadata
     id="metadata3416">
    <rdf:RDF>
      <cc:Work
         rdf:about="">
        <dc:format>image/svg+xml</dc:format>
        <dc:type
           rdf:resource="http://purl.org/dc/dcmitype/StillImage" />
        <dc:title></dc:title>
      </cc:Work>
    </rdf:RDF>
  </metadata>
  <g
     inkscape:label="レイヤー 1"
     inkscape:groupmode="layer"
     id="layer1"
     transform="translate(-4.8571568,-9.9336496)">
    <rect
       width="716"
       height="181.45206"
       x="4.8571568"
       y="9.9336309"
       id="rect5183"
       style="fill:#ffffff;fill-opacity:0;stroke:none" />
    <g
       transform="matrix(0.86930579,0,0,0.86947268,149.07651,-776.28879)"
       id="g3664">
      <g
         transform="matrix(0,-1,1,0,-1934.5199,1337.4805)"
         id="g12802">
        <g
           transform="translate(16.279512,-899.16723)"
           id="g12804">
          <g
             transform="matrix(1.0666663,0,0,1,-26.935596,-4.1328125e-5)"
             id="g12806">
            <path
               inkscape:connector-curvature="0"
               d="m 323.36653,2798.1614 -5.40616,5.8005 -5.40616,-5.8005 0,-40.8261 -18.01333,0 23.41949,-24.8979 23.02487,24.8979 -17.6187,0 -10e-6,40.8261 z"
               id="path12808"
               style="display:inline;overflow:visible;visibility:visible;fill:#932279;fill-opacity:1;fill-rule:evenodd;stroke:none;stroke-width:30;marker:none" />
          </g>
          <g
             transform="matrix(1.0722788,0,0,1,-28.850792,-4.1328125e-5)"
             clip-path="url(#clipPath4429)"
             id="g12812" />
        </g>
      </g>
      <g
         transform="translate(-351.30671,-902.55818)"
         id="g12768">
        <g
           transform="translate(16.279512,-899.16723)"
           id="g12770">
          <g
             transform="matrix(1.0666663,0,0,1,-26.935596,-4.1328125e-5)"
             id="g12772">
            <path
               inkscape:connector-curvature="0"
               d="m 323.36653,2798.1614 -5.40616,5.8005 -5.40616,-5.8005 0,-40.8261 -18.01333,0 23.41949,-24.8979 23.02487,24.8979 -17.6187,0 -10e-6,40.8261 z"
               id="path12774"
               style="display:inline;overflow:visible;visibility:visible;fill:#efa724;fill-opacity:1;fill-rule:evenodd;stroke:none;stroke-width:30;marker:none" />
          </g>
          <g
             transform="matrix(1.0722788,0,0,1,-28.850792,-4.1328125e-5)"
             clip-path="url(#clipPath4429)"
             id="g12778" />
        </g>
      </g>
      <g
         transform="matrix(0,1,-1,0,2787.8992,696.93451)"
         id="g12780">
        <g
           transform="matrix(1.0666663,0,0,1,-26.935596,-4.1328125e-5)"
           id="g12782">
          <path
             inkscape:connector-curvature="0"
             d="m 323.36653,2798.1614 -5.40616,5.8005 -5.40616,-5.8005 0,-40.8261 -18.01333,0 23.41949,-24.8979 23.02487,24.8979 -17.6187,0 -10e-6,40.8261 z"
             id="path12784"
             style="display:inline;overflow:visible;visibility:visible;fill:#262577;fill-opacity:1;fill-rule:evenodd;stroke:none;stroke-width:30;marker:none" />
        </g>
        <g
           transform="matrix(1.0722788,0,0,1,-28.850792,-4.1328125e-5)"
           clip-path="url(#clipPath4429)"
           id="g12788" />
      </g>
      <g
         transform="matrix(-1,0,0,-1,305.51863,2920.6937)"
         id="g12790">
        <g
           transform="translate(16.279512,-899.16723)"
           id="g12792">
          <g
             transform="matrix(1.0666663,0,0,1,-26.935596,-4.1328125e-5)"
             id="g12794">
            <path
               inkscape:connector-curvature="0"
               d="m 323.36653,2798.1614 -5.40616,5.8005 -5.40616,-5.8005 0,-40.8261 -18.01333,0 23.41949,-24.8979 23.02487,24.8979 -17.6187,0 -10e-6,40.8261 z"
               id="path12796"
               style="display:inline;overflow:visible;visibility:visible;fill:#9ccd2a;fill-opacity:1;fill-rule:evenodd;stroke:none;stroke-width:30;marker:none" />
          </g>
          <g
             transform="matrix(1.0722788,0,0,1,-28.850792,-4.1328125e-5)"
             clip-path="url(#clipPath4429)"
             id="g12800" />
        </g>
      </g>
      <g
         transform="translate(-749.79982,-1331.6428)"
         id="g12742">
        <path
           inkscape:connector-curvature="0"
           d="m 671.98437,2285.7893 49.60645,0 0,49.6065 -49.60645,0 0,-49.6065 z"
           id="rect12744"
           style="fill:#9ccd2a;fill-opacity:1;stroke:#ffffff;stroke-width:3.54330707;stroke-linecap:butt;stroke-linejoin:miter;stroke-miterlimit:4;stroke-dashoffset:0;stroke-opacity:1" />
        <path
           inkscape:connector-curvature="0"
           d="m 732.22076,2285.7893 49.60645,0 0,49.6065 -49.60645,0 0,-49.6065 z"
           id="rect12746"
           style="fill:#932279;fill-opacity:1;stroke:#ffffff;stroke-width:3.54330707;stroke-linecap:butt;stroke-linejoin:miter;stroke-miterlimit:4;stroke-dashoffset:0;stroke-opacity:1" />
        <path
           inkscape:connector-curvature="0"
           d="m 732.22076,2346.0256 49.60645,0 0,49.6065 -49.60645,0 0,-49.6065 z"
           id="rect12748"
           style="fill:#efa724;fill-opacity:1;stroke:#ffffff;stroke-width:3.54330707;stroke-linecap:butt;stroke-linejoin:miter;stroke-miterlimit:4;stroke-dashoffset:0;stroke-opacity:1" />
        <path
           inkscape:connector-curvature="0"
           d="m 671.98437,2346.0256 49.60645,0 0,49.6065 -49.60645,0 0,-49.6065 z"
           id="rect12750"
           style="fill:#262577;fill-opacity:1;stroke:#ffffff;stroke-width:3.54330707;stroke-linecap:butt;stroke-linejoin:miter;stroke-miterlimit:4;stroke-dashoffset:0;stroke-opacity:1" />
      </g>
      <path
         inkscape:connector-curvature="0"
         d="m -784.62878,642.40875 49.60644,0 0,49.60645 -49.60644,0 0,-49.60645 z"
         transform="matrix(0.7071068,-0.7071068,0.7071068,0.7071068,0,0)"
         id="rect12760"
         style="fill:none;stroke:#ffffff;stroke-width:3.54330707;stroke-linecap:butt;stroke-linejoin:miter;stroke-miterlimit:4;stroke-dashoffset:0;stroke-opacity:1" />
      <path
         inkscape:connector-curvature="0"
         d="m -724.39233,642.40875 49.60645,0 0,49.60645 -49.60645,0 0,-49.60645 z"
         transform="matrix(0.7071068,-0.7071068,0.7071068,0.7071068,0,0)"
         id="rect12762"
         style="fill:none;stroke:#ffffff;stroke-width:3.54306793;stroke-linecap:butt;stroke-linejoin:miter;stroke-miterlimit:4;stroke-dasharray:none;stroke-dashoffset:0;stroke-opacity:1" />
      <path
         inkscape:connector-curvature="0"
         d="m -15.377623,1009.0679 35.077058,-35.0771 35.077058,35.0771 -35.077058,35.077 -35.077058,-35.077 z"
         id="rect12764"
         style="fill:none;stroke:#ffffff;stroke-width:3.54330707;stroke-linecap:butt;stroke-linejoin:miter;stroke-miterlimit:4;stroke-dashoffset:0;stroke-opacity:1" />
      <path
         inkscape:connector-curvature="0"
         d="m -784.62878,702.64508 49.60644,0 0,49.60645 -49.60644,0 0,-49.60645 z"
         transform="matrix(0.7071068,-0.7071068,0.7071068,0.7071068,0,0)"
         id="rect12766"
         style="fill:none;stroke:#ffffff;stroke-width:3.54330707;stroke-linecap:butt;stroke-linejoin:miter;stroke-miterlimit:4;stroke-dashoffset:0;stroke-opacity:1" />
    </g>
    <g
       transform="matrix(0.52479661,0,0,0.52479661,225.66629,27.494604)"
       id="g3896">
      <g
         style="fill:#0b5567"
         id="g3898">
        <path
           inkscape:connector-curvature="0"
           d="m 349.6,105.5 0,-12.2 19.9,0 0,58.4 c 0,7.1 1.7,9.8 6.1,9.8 1.2,0 2.7,-0.2 4.1,-0.3 l 0,16.1 c -2.2,0.8 -5.5,1.3 -9.8,1.3 -4.8,0 -8.6,-0.8 -11.6,-2.7 -3.7,-2.5 -6,-5.8 -6.8,-10.1 -5.8,8.8 -15.4,13.1 -28.7,13.1 -11.8,0 -21.7,-4.1 -29.9,-12.6 -8,-8.5 -12,-18.8 -12,-31.2 0,-12.4 4,-22.7 12,-31 8.1,-8.5 18.1,-12.6 29.9,-12.6 13.6,0 23.7,6 26.8,14 z m -5.9,47.9 c 5,-4.8 7.5,-11 7.5,-18.3 0,-7.3 -2.5,-13.4 -7.5,-18.3 -4.8,-4.8 -11,-7.3 -18.1,-7.3 -7.1,0 -12.9,2.5 -17.8,7.3 -4.6,4.8 -7,11 -7,18.3 0,7.3 2.3,13.4 7,18.3 4.8,4.8 10.6,7.3 17.8,7.3 7.1,0 13.3,-2.5 18.1,-7.3 z m 44.8,23.6 0,-115.7 19.8,0 0,67.6 30.9,-35.5 22.8,0 -32.7,37.4 36.2,46.3 -22.6,0 -26.4,-33.7 -8.3,9.3 0,24.3 -19.7,0 z m 82.3,0 0,-115.7 19.8,0 0,67.6 30.9,-35.5 22.9,0 -32.7,37.4 36.2,46.3 -22.6,0 -26.4,-33.7 -8.3,9.3 0,24.3 -19.8,0 z m 137.1,-71.5 0,-12.2 19.9,0 0,58.4 c 0,7.1 1.7,9.8 6.1,9.8 1.2,0 2.7,-0.2 4.1,-0.3 l 0,16.1 c -2.2,0.8 -5.5,1.3 -9.8,1.3 -4.8,0 -8.6,-0.8 -11.6,-2.7 -3.7,-2.5 -6,-5.8 -6.8,-10.1 -5.8,8.8 -15.4,13.1 -28.7,13.1 -11.8,0 -21.7,-4.1 -29.9,-12.6 -8,-8.5 -12,-18.8 -12,-31.2 0,-12.4 4,-22.7 12,-31 8.1,-8.5 18.1,-12.6 29.9,-12.6 13.5,0 23.6,6 26.8,14 z m -6,47.9 c 5,-4.8 7.5,-11 7.5,-18.3 0,-7.3 -2.5,-13.4 -7.5,-18.3 -4.8,-4.8 -11,-7.3 -18.1,-7.3 -7.1,0 -12.9,2.5 -17.8,7.3 -4.6,4.8 -7,11 -7,18.3 0,7.3 2.3,13.4 7,18.3 4.8,4.8 10.6,7.3 17.8,7.3 7.1,0 13.3,-2.5 18.1,-7.3 z"
           id="path3900" />
      </g>
      <path
         style="fill:#0b5567"
         inkscape:connector-curvature="0"
         d="m 230.3,212.8 c 35.9,28.7 58.9,-57 1.7,-72.8 -48,-13.3 -96.3,9.5 -144.7,62.7 0,0 89.4,-32.7 143,10.1 z"
         id="path3902" />
      <path
         style="fill:#15a9ce"
         inkscape:connector-curvature="0"
         d="m 88.1,202 c 34.4,-35.7 91.6,-75.5 144.9,-60.8 12.4,3.5 21.2,10.7 26.9,19.3 L 209.5,58.8 c -7.2,-11.5 -25.6,-9.1 -36,-0.3 L 40.3,170.1 c -12.1,10.4 -12.8,28.9 -1.6,40.1 9.9,9.9 25.6,10.8 36.5,2 L 88.1,202 Z"
         id="path3904" />
    </g>
  </g>
</svg>
